<?xml version="1.0" encoding="utf-8"?>
<!-- Generator: Adobe Illustrator 21.1.0, SVG Export Plug-In . SVG Version: 6.00 Build 0)  -->
<svg version="1.1" id="Layer_1" xmlns="http://www.w3.org/2000/svg" xmlns:xlink="http://www.w3.org/1999/xlink" x="0px" y="0px"
	 viewBox="0 0 459.7 117.6" height="117.6" width="459.7" style="enable-background:new 0 0 459.7 117.6;" xml:space="preserve">
<style type="text/css">
	.Round_x0020_Corners_x0020_2_x0020_pt{fill:#FFFFFF;stroke:#231F20;stroke-miterlimit:10;}
	.Live_x0020_Reflect_x0020_X{fill:none;}
	.Bevel_x0020_Soft{fill:url(#SVGID_1_);}
	.Dusk{fill:#FFFFFF;}
	.Foliage_GS{fill:#FFDD00;}
	.Pompadour_GS{fill-rule:evenodd;clip-rule:evenodd;fill:#44ACE1;}
	.st0{fill:#CBCCC7;}
	.st1{fill:#82D743;}
	.st2{fill:none;}
</style>
<linearGradient id="SVGID_1_" gradientUnits="userSpaceOnUse" x1="-106.5057" y1="-13.583" x2="-105.7986" y2="-12.8759">
	<stop  offset="0" style="stop-color:#DEDFE3"/>
	<stop  offset="0.1783" style="stop-color:#DADBDF"/>
	<stop  offset="0.3611" style="stop-color:#CECFD3"/>
	<stop  offset="0.546" style="stop-color:#B9BCBF"/>
	<stop  offset="0.7324" style="stop-color:#9CA0A2"/>
	<stop  offset="0.9181" style="stop-color:#787D7E"/>
	<stop  offset="1" style="stop-color:#656B6C"/>
</linearGradient>
<g>
	<g>
		<g>
			<g>
				<g>
					<polygon class="st0" points="58.4,58.7 78.2,58.7 78.2,55.9 61.2,55.9 61.2,46.1 75.7,46.1 75.7,43.3 61.2,43.3 61.2,33 
						78.2,33 78.2,30.2 58.4,30.2 					"/>
					<path class="st0" d="M104.4,47.1L104.4,47.1c0.8-0.6,1.5-1.3,2.1-2.1c0.6-0.8,1-1.7,1.3-2.6c0.3-0.9,0.4-1.9,0.4-2.9
						c0-1.3-0.2-2.5-0.7-3.6c-0.4-1.1-1.1-2.1-1.9-3c-0.8-0.9-1.9-1.5-3.1-2c-1.2-0.5-2.6-0.7-4.1-0.7H85.8v28.5h2.9v-9.8h10.2
						c0.1,0,0.2,0,0.3,0l7,9.8h3.5l-7.4-10.4C103,48,103.8,47.6,104.4,47.1z M105.4,39.5c0,0.9-0.2,1.7-0.5,2.5
						c-0.3,0.8-0.8,1.5-1.4,2.1c-0.6,0.6-1.4,1.1-2.2,1.4c-0.9,0.4-1.9,0.5-3.1,0.5h-9.7V32.9h9.7c1.2,0,2.2,0.2,3.1,0.5
						c0.9,0.4,1.6,0.8,2.2,1.4c0.6,0.6,1.1,1.3,1.4,2.1C105.3,37.8,105.4,38.7,105.4,39.5z"/>
					<polygon class="st0" points="127.1,55.2 115.8,30.2 112.6,30.2 125.8,58.7 128.5,58.7 141.6,30.2 138.4,30.2 					"/>
					<rect x="148.2" y="30.2" class="st0" width="2.9" height="28.5"/>
					<polygon class="st0" points="214.4,33 214.4,30.2 194.6,30.2 194.6,58.7 214.4,58.7 214.4,55.9 197.4,55.9 197.4,46.1 
						211.9,46.1 211.9,43.3 197.4,43.3 197.4,33 					"/>
					<path class="st0" d="M184.4,50.4c-1.1,1.8-2.5,3.2-4.3,4.3c-1.8,1.1-3.8,1.6-6,1.6c-1.7,0-3.2-0.3-4.7-0.9
						c-1.4-0.6-2.7-1.5-3.8-2.6c-1.1-1.1-1.9-2.4-2.6-3.8c-0.6-1.4-0.9-3-0.9-4.7c0-1.6,0.3-3.2,0.9-4.6c0.6-1.4,1.5-2.7,2.6-3.8
						c1.1-1.1,2.4-1.9,3.8-2.6c1.4-0.6,3-0.9,4.7-0.9c1.1,0,2.1,0.1,3.1,0.4c1,0.3,2,0.7,2.8,1.2c0.9,0.5,1.7,1.1,2.4,1.8
						c0.7,0.7,1.4,1.5,1.9,2.4l0.2,0.4l1.8-2.5l-0.1-0.1c-0.5-0.8-1.1-1.5-1.7-2.1c-0.9-0.9-1.9-1.7-3-2.4c-1.1-0.7-2.3-1.2-3.5-1.5
						c-1.3-0.4-2.6-0.5-3.9-0.5c-2,0-4,0.4-5.8,1.2c-1.8,0.8-3.4,1.8-4.7,3.2c-1.3,1.3-2.4,2.9-3.2,4.7c-0.8,1.8-1.2,3.7-1.2,5.8
						c0,2,0.4,4,1.2,5.8c0.8,1.8,1.8,3.4,3.2,4.7c1.3,1.3,2.9,2.4,4.7,3.2c1.8,0.8,3.8,1.2,5.8,1.2c1.4,0,2.7-0.2,4-0.5
						c1.3-0.4,2.5-0.9,3.6-1.5c1.1-0.7,2.1-1.4,3-2.4c0.6-0.6,1.2-1.3,1.7-2.1l0.1-0.1l-1.8-2.5L184.4,50.4z"/>
				</g>
				<g>
					<g>
						<path class="st0" d="M276,34L276,34c-1.3-1.3-2.9-2.4-4.7-3.2c-1.8-0.8-3.7-1.2-5.8-1.2c-2,0-4,0.4-5.8,1.2
							c-1.8,0.8-3.4,1.8-4.7,3.2c-1.3,1.3-2.4,2.9-3.2,4.7c-0.8,1.8-1.2,3.7-1.2,5.8c0,2,0.4,4,1.2,5.8c0.8,1.8,1.8,3.4,3.2,4.7
							c1.3,1.3,2.9,2.4,4.7,3.2c1.8,0.8,3.8,1.2,5.8,1.2c2,0,4-0.4,5.8-1.2c1.8-0.8,3.4-1.8,4.7-3.2c1.3-1.3,2.4-2.9,3.2-4.7
							c0.8-1.8,1.2-3.7,1.2-5.8c0-2-0.4-4-1.2-5.8C278.4,36.9,277.4,35.3,276,34z M277.5,44.5c0,1.6-0.3,3.2-0.9,4.7
							c-0.6,1.4-1.5,2.7-2.6,3.8c-1.1,1.1-2.4,1.9-3.8,2.6c-1.4,0.6-3,0.9-4.6,0.9c-1.6,0-3.2-0.3-4.7-0.9c-1.4-0.6-2.7-1.5-3.8-2.6
							c-1.1-1.1-1.9-2.4-2.6-3.8c-0.6-1.4-0.9-3-0.9-4.7c0-1.6,0.3-3.2,0.9-4.6c0.6-1.4,1.5-2.7,2.6-3.8c1.1-1.1,2.4-1.9,3.8-2.6
							c1.4-0.6,3-0.9,4.7-0.9c1.6,0,3.2,0.3,4.6,0.9c1.4,0.6,2.7,1.5,3.8,2.6c1.1,1.1,1.9,2.4,2.6,3.8
							C277.2,41.3,277.5,42.8,277.5,44.5z"/>
						<path class="st0" d="M309.4,47.8c0,1.3-0.2,2.4-0.6,3.5c-0.4,1-1,2-1.7,2.7c-0.8,0.8-1.7,1.4-2.8,1.8c-1.1,0.4-2.5,0.7-4,0.7
							c-1.5,0-2.8-0.2-4-0.7c-1.1-0.4-2.1-1-2.9-1.8c-0.8-0.8-1.4-1.7-1.7-2.7c-0.4-1.1-0.6-2.2-0.6-3.5V30.2h-2.8v17.6
							c0,1.6,0.3,3.1,0.8,4.5c0.5,1.4,1.3,2.6,2.3,3.6c1,1,2.3,1.8,3.8,2.4c1.5,0.6,3.2,0.9,5.2,0.9c1.9,0,3.7-0.3,5.2-0.9
							c1.5-0.6,2.8-1.4,3.8-2.4c1-1,1.8-2.2,2.3-3.6c0.5-1.4,0.8-2.9,0.8-4.5V30.2h-2.9V47.8z"/>
						<path class="st0" d="M340.6,47.1c0.8-0.6,1.5-1.3,2.1-2.1c0.6-0.8,1-1.7,1.3-2.6c0.3-0.9,0.4-1.9,0.4-2.9
							c0-1.3-0.2-2.5-0.7-3.6c-0.4-1.1-1.1-2.1-1.9-3c-0.8-0.9-1.9-1.5-3.1-2c-1.2-0.5-2.6-0.7-4.1-0.7h-12.6v28.5h2.8v-9.8h10.2
							c0.1,0,0.2,0,0.3,0l7,9.8h3.5l-7.4-10.4C339.1,48,339.9,47.6,340.6,47.1z M341.5,39.5c0,0.9-0.2,1.7-0.5,2.5
							c-0.3,0.8-0.8,1.5-1.4,2.1c-0.6,0.6-1.4,1.1-2.2,1.4c-0.9,0.4-1.9,0.5-3.1,0.5h-9.7V32.9h9.7c1.2,0,2.2,0.2,3.1,0.5
							c0.9,0.4,1.6,0.8,2.2,1.4c0.6,0.6,1.1,1.3,1.4,2.1C341.4,37.8,341.5,38.7,341.5,39.5z"/>
						<polygon class="st0" points="406.1,33 406.1,30.2 386.3,30.2 386.3,58.7 406.1,58.7 406.1,55.9 389.2,55.9 389.2,46.1 
							403.6,46.1 403.6,43.3 389.2,43.3 389.2,33 						"/>
						<path class="st0" d="M376.1,50.4c-1.1,1.8-2.5,3.2-4.3,4.3c-1.8,1.1-3.8,1.6-6,1.6c-1.6,0-3.2-0.3-4.7-0.9
							c-1.4-0.6-2.7-1.5-3.8-2.6c-1.1-1.1-1.9-2.4-2.6-3.8c-0.6-1.4-0.9-3-0.9-4.7c0-1.6,0.3-3.2,0.9-4.6c0.6-1.4,1.5-2.7,2.6-3.8
							c1.1-1.1,2.4-1.9,3.8-2.6c1.4-0.6,3-0.9,4.7-0.9c1.1,0,2.1,0.1,3.1,0.4c1,0.3,2,0.7,2.8,1.2c0.9,0.5,1.7,1.1,2.4,1.8
							c0.7,0.7,1.4,1.5,1.9,2.4l0.2,0.4l1.8-2.5l-0.1-0.1c-0.5-0.8-1.1-1.5-1.7-2.1c-0.9-0.9-1.9-1.7-3-2.4
							c-1.1-0.7-2.3-1.2-3.5-1.5c-1.3-0.4-2.6-0.5-3.9-0.5c-2,0-4,0.4-5.8,1.2c-1.8,0.8-3.4,1.8-4.7,3.2c-1.3,1.3-2.4,2.9-3.2,4.7
							c-0.8,1.8-1.2,3.7-1.2,5.8c0,2,0.4,4,1.2,5.8c0.8,1.8,1.8,3.4,3.2,4.7c1.3,1.3,2.9,2.4,4.7,3.2c1.8,0.8,3.8,1.2,5.8,1.2
							c1.4,0,2.7-0.2,4-0.5c1.3-0.4,2.5-0.9,3.6-1.5c1.1-0.7,2.1-1.4,3-2.4c0.6-0.6,1.2-1.3,1.7-2.1l0.1-0.1l-1.8-2.5L376.1,50.4z"
							/>
					</g>
					<polygon class="st1" points="219.3,88 249.7,88 234.5,66.8 					"/>
				</g>
			</g>
			<path class="st0" d="M41.4,42.9c-6.6-1.4-7.9-3.1-7.9-5.7v-0.1c0-2.8,2.7-4.9,6.5-4.9c3.2,0,5.7,0.9,8.1,3.1l0.3,0.3l0,0l1.7-2.3
				L50,33.1c-3.1-2.5-5.9-3.5-9.8-3.5c-5.3,0-9.4,3.3-9.4,7.7v0.1c0,4.5,2.8,6.8,9.7,8.2c6.4,1.3,7.6,3,7.6,5.6v0.1
				c0,3.1-2.8,5.2-6.7,5.2c-3.9,0-6.6-1.1-9.8-4.1l-0.3-0.3l0,0l-1.7,2.3l0.1,0.1c3.5,3.2,7.1,4.6,11.5,4.6c5.7,0,9.6-3.3,9.6-8V51
				C50.9,46.7,48.1,44.3,41.4,42.9z"/>
			<path class="st1" d="M235.7,42.9c-6.6-1.4-7.9-3.1-7.9-5.7v-0.1c0-2.8,2.7-4.9,6.5-4.9c3.2,0,5.7,0.9,8.1,3.1l0.3,0.3l0,0
				l1.7-2.3l-0.2-0.1c-3.1-2.5-5.9-3.5-9.8-3.5c-5.3,0-9.4,3.3-9.4,7.7v0.1c0,4.5,2.8,6.8,9.7,8.2c6.4,1.3,7.6,3,7.6,5.6v0.1
				c0,3.1-2.8,5.2-6.7,5.2c-3.9,0-6.6-1.1-9.8-4.1l-0.3-0.3l0,0l-1.7,2.3l0.1,0.1c3.5,3.2,7.1,4.6,11.5,4.6c5.7,0,9.6-3.3,9.6-8V51
				C245.2,46.7,242.4,44.3,235.7,42.9z"/>
		</g>
		<g>
			<path class="st0" d="M419.8,35.7H419v-4.7h-1.8v-0.7h4.3v0.7h-1.8V35.7z M425.5,34.5h-0.1l-1.9-3v4.2h-0.8v-5.5h0.8l2,3l1.9-3
				h0.8v5.5h-0.8v-4.2L425.5,34.5z"/>
		</g>
	</g>
	<rect class="st2" width="459.7" height="117.6"/>
</g>
</svg>
